<?xml version="1.0" encoding="iso-8859-1"?>
<!-- Generator: Adobe Illustrator 19.0.0, SVG Export Plug-In . SVG Version: 6.00 Build 0)  -->
<svg version="1.1" id="Capa_1" xmlns="http://www.w3.org/2000/svg" xmlns:xlink="http://www.w3.org/1999/xlink" x="0px" y="0px"
	 viewBox="0 0 512 512" style="enable-background:new 0 0 512 512;" xml:space="preserve">
<path style="fill:#79C6E4;" d="M289.618,188.964L289.618,188.964c0,42.212-44.019,69.993-82.123,51.829
	c-18.004-8.582-37.416-17.841-56.541-26.972C83.14,181.445,3.717,229.493,2.27,304.625c-0.021,1.073-0.031,2.149-0.031,3.226
	C2.239,420.599,115.852,512,256,512s253.761-91.401,253.761-204.149c0-76.066-51.714-142.41-128.399-177.529
	C338.468,110.678,289.618,141.785,289.618,188.964z"/>
<path style="opacity:0.1;enable-background:new    ;" d="M431.258,160.222c32.63,34.347,52.017,77.271,52.017,123.84
	c0,112.748-113.613,204.149-253.761,204.149c-67.935,0-129.634-21.477-175.181-56.451C100.705,480.532,173.779,512,256,512
	c140.149,0,253.761-91.401,253.761-204.149C509.761,249.788,479.627,197.392,431.258,160.222z"/>
<circle style="fill:#FFFFFF;" cx="112.32" cy="352.53" r="33.604"/>
<circle style="fill:#FBE096;" cx="218.2" cy="425.85" r="33.604"/>
<circle style="fill:#ED718B;" cx="341.47" cy="417.58" r="33.604"/>
<circle style="fill:#FDA75F;" cx="424.4" cy="323.92" r="33.604"/>
<path style="opacity:0.1;enable-background:new    ;" d="M445.107,297.462c4.472,5.707,7.146,12.891,7.146,20.704
	c0,18.559-15.045,33.604-33.604,33.604c-7.813,0-14.996-2.674-20.703-7.145c6.151,7.85,15.712,12.901,26.459,12.901
	c18.559,0,33.604-15.045,33.604-33.604C458.007,313.175,452.957,303.614,445.107,297.462z"/>
<path style="opacity:0.1;enable-background:new    ;" d="M362.174,391.119c4.472,5.707,7.146,12.891,7.146,20.704
	c0,18.559-15.045,33.604-33.604,33.604c-7.813,0-14.997-2.673-20.704-7.145c6.151,7.85,15.712,12.901,26.459,12.901
	c18.559,0,33.604-15.045,33.604-33.604C375.075,406.831,370.025,397.27,362.174,391.119z"/>
<path style="opacity:0.1;enable-background:new    ;" d="M238.905,399.387c4.472,5.707,7.146,12.891,7.146,20.704
	c0,18.559-15.045,33.604-33.604,33.604c-7.813,0-14.997-2.674-20.703-7.146c6.151,7.85,15.712,12.901,26.459,12.901
	c18.559,0,33.604-15.045,33.604-33.604C251.806,415.099,246.756,405.538,238.905,399.387z"/>
<path style="opacity:0.1;enable-background:new    ;" d="M133.024,326.069c4.472,5.707,7.146,12.891,7.146,20.704
	c0,18.559-15.045,33.604-33.604,33.604c-7.813,0-14.997-2.674-20.704-7.145c6.151,7.85,15.712,12.901,26.459,12.901
	c18.559,0,33.604-15.045,33.604-33.604C145.925,341.781,140.874,332.22,133.024,326.069z"/>
<g>
	<path style="fill:#404B58;" d="M185.23,327.104c-3.571,0-6.736-2.56-7.377-6.198l-2.483-14.082c-0.719-4.08,2.005-7.97,6.084-8.688
		c4.081-0.723,7.97,2.005,8.689,6.083l2.483,14.082c0.719,4.08-2.005,7.97-6.084,8.689
		C186.101,327.066,185.663,327.104,185.23,327.104z"/>
	<path style="fill:#404B58;" d="M354.901,297.186c-3.571,0-6.735-2.56-7.378-6.198l-2.483-14.082
		c-0.719-4.079,2.004-7.97,6.084-8.689c4.083-0.724,7.969,2.005,8.689,6.083l2.483,14.082c0.719,4.079-2.004,7.97-6.083,8.689
		C355.772,297.148,355.333,297.186,354.901,297.186z"/>
	<path style="fill:#404B58;" d="M266.76,323.415c-8.539,0-16.9-2.912-23.654-8.368c-3.223-2.604-3.725-7.325-1.122-10.548
		c2.603-3.222,7.325-3.724,10.547-1.122c5.099,4.119,11.712,5.829,18.148,4.695c6.435-1.135,12.065-5.005,15.448-10.619
		c2.138-3.546,6.745-4.689,10.295-2.553c3.548,2.138,4.69,6.747,2.553,10.295c-5.622,9.328-14.985,15.761-25.691,17.648
		C271.114,323.227,268.931,323.415,266.76,323.415z"/>
</g>
<path style="opacity:0.1;enable-background:new    ;" d="M150.954,213.82c-17.812-8.504-36.424-11.452-54.215-9.825l-31.507,40.421
	c-11.522,14.782-10.223,35.834,3.03,49.087l0,0c13.253,13.253,34.305,14.553,49.087,3.03l69.934-54.513
	c2.856-2.227,5.658-4.516,8.42-6.85C181.153,228.233,165.97,220.99,150.954,213.82z"/>
<path style="fill:#FBE096;" d="M297.128,115.016c19.838-19.838,30.511-63.11,29.829-103.773
	c-0.125-7.444-7.187-12.773-14.378-10.846c-33.557,8.99-76.66,14.357-96.187,33.884c-22.294,22.294-22.294,58.441,0,80.736
	C238.687,137.311,274.834,137.311,297.128,115.016z"/>
<path style="opacity:0.1;enable-background:new    ;" d="M216.393,115.016c-0.214-0.214-0.412-0.438-0.622-0.654
	c22,13.542,51.188,10.795,70.253-8.27c19.838-19.838,30.511-63.11,29.829-103.773c-0.013-0.798-0.111-1.571-0.276-2.314
	c6.037,0.006,11.273,4.838,11.38,11.238c0.682,40.663-9.991,83.936-29.829,103.773C274.834,137.311,238.687,137.311,216.393,115.016
	z"/>
<g style="opacity:0.1;">
	<path d="M269.917,104.586c-2.571,0-5.074-1.322-6.471-3.698c-2.1-3.57-0.909-8.167,2.662-10.268
		c14.462-8.507,25.11-36.074,25.931-45.927c0.344-4.128,3.97-7.224,8.097-6.851c4.128,0.344,7.195,3.969,6.851,8.097
		c-1.163,13.958-13.616,46.046-33.274,57.61C272.519,104.252,271.209,104.586,269.917,104.586z"/>
	<path d="M228.396,71.656c-0.522,0-1.053-0.056-1.584-0.17c-4.05-0.87-6.626-4.859-5.756-8.909
		c3.316-15.421,20.198-25.172,28.661-28.174c3.903-1.386,8.191,0.656,9.576,4.562c1.385,3.903-0.657,8.191-4.561,9.575
		c-6.686,2.372-17.352,9.476-19.011,17.191C234.965,69.249,231.855,71.656,228.396,71.656z"/>
</g>
<path style="fill:#ED718B;" d="M102.171,281.355l69.934-54.513c25.802-20.112,47.805-44.67,64.975-72.517l0,0
	c5.686-9.223,6.72-20.578,2.792-30.675l0,0c-5.73-14.732-17.381-26.382-32.113-32.113l0,0c-10.098-3.928-21.453-2.894-30.676,2.792
	l0,0c-27.847,17.169-52.405,39.173-72.517,64.975l-54.513,69.934c-11.523,14.782-10.223,35.834,3.03,49.087l0,0
	C66.337,291.578,87.388,292.878,102.171,281.355z"/>
<path style="fill:#404B58;" d="M148.029,114.969c9.213-7.485,18.912-14.387,29.054-20.64l0,0c9.223-5.686,20.578-6.72,30.676-2.792
	l0,0c14.732,5.73,26.383,17.381,32.113,32.113l0,0c3.928,10.098,2.894,21.453-2.792,30.675l0,0
	c-6.253,10.142-13.154,19.841-20.64,29.054L148.029,114.969z"/>
<path style="opacity:0.1;enable-background:new    ;" d="M172.105,226.842l-69.934,54.513c-14.782,11.523-35.834,10.223-49.087-3.03
	l0,0c-2.085-2.085-3.873-4.363-5.363-6.78c12.943,7.98,29.85,7.377,42.307-2.333l69.934-54.513
	c25.802-20.112,47.805-44.67,64.975-72.517l0,0c5.686-9.223,6.72-20.578,2.792-30.675l0,0c-1.802-4.633-4.191-8.959-7.076-12.894
	c8.578,6.288,15.29,14.938,19.219,25.037l0,0c3.928,10.098,2.894,21.453-2.792,30.675l0,0
	C219.91,182.173,197.907,206.73,172.105,226.842z"/>
<g>
</g>
<g>
</g>
<g>
</g>
<g>
</g>
<g>
</g>
<g>
</g>
<g>
</g>
<g>
</g>
<g>
</g>
<g>
</g>
<g>
</g>
<g>
</g>
<g>
</g>
<g>
</g>
<g>
</g>
</svg>
